<svg xmlns="http://www.w3.org/2000/svg" width="298.314" height="298.313" viewBox="0 0 298.314 298.313"><path d="M172.708 157c-8.68 0-15.7 7.028-15.7 15.708 0 8.664 7.036 15.7 15.7 15.7s15.7-7.036 15.7-15.7c.002-8.68-7.02-15.71-15.7-15.71zm-47.103-15.694c8.668 0 15.7-7.033 15.7-15.7 0-8.675-7.032-15.7-15.7-15.7-8.666 0-15.7 7.025-15.7 15.7 0 8.667 7.034 15.7 15.7 15.7zm47.103-31.4c-8.68 0-15.7 7.025-15.7 15.7 0 8.667 7.02 15.7 15.7 15.7 8.664 0 15.7-7.033 15.7-15.7.002-8.675-7.02-15.7-15.7-15.7zM188.41 31.4h-78.504v31.402h78.504V31.4zm31.402 109.906c8.66 0 15.7-7.033 15.7-15.7 0-8.675-7.024-15.7-15.7-15.7-8.68 0-15.7 7.025-15.7 15.7 0 8.667 7.036 15.7 15.7 15.7zm0 47.103c8.66 0 15.7-7.038 15.7-15.702 0-8.68-7.024-15.7-15.7-15.7-8.68 0-15.7 7.02-15.7 15.7 0 8.664 7.036 15.7 15.7 15.7zm-94.207 0c8.668 0 15.7-7.038 15.7-15.702 0-8.68-7.024-15.71-15.7-15.71-8.674 0-15.7 7.03-15.7 15.71 0 8.664 7.034 15.7 15.7 15.7zm-47.1 47.103c8.665 0 15.7-7.04 15.7-15.7 0-8.68-7.035-15.702-15.7-15.702-8.675 0-15.702 7.022-15.702 15.702 0 8.66 7.034 15.7 15.7 15.7zM266.91 31.4h-15.695v31.402h15.696V266.91H31.403V62.803h15.7V31.4H31.4C14.06 31.4 0 45.455 0 62.803v204.1c0 17.353 14.06 31.41 31.402 31.41H266.91c17.345 0 31.402-14.058 31.402-31.41v-204.1c0-17.348-14.057-31.403-31.4-31.403zM78.505 188.41c8.666 0 15.7-7.038 15.7-15.702 0-8.68-7.034-15.71-15.7-15.71-8.674 0-15.7 7.03-15.7 15.71 0 8.664 7.033 15.7 15.7 15.7zm0-47.104c8.666 0 15.7-7.033 15.7-15.7 0-8.675-7.034-15.7-15.7-15.7-8.674 0-15.7 7.025-15.7 15.7 0 8.667 7.033 15.7 15.7 15.7zm47.1 94.207c8.67 0 15.702-7.04 15.702-15.7 0-8.68-7.033-15.702-15.7-15.702-8.667 0-15.7 7.022-15.7 15.702 0 8.66 7.033 15.7 15.7 15.7zm-47.1-172.71c8.666 0 15.7-7.033 15.7-15.7v-31.4C94.205 7.024 87.18 0 78.505 0c-8.667 0-15.7 7.025-15.7 15.7v31.4c0 8.67 7.033 15.703 15.7 15.703zm141.308 0c8.66 0 15.7-7.033 15.7-15.7v-31.4c0-8.678-7.04-15.703-15.7-15.703-8.68 0-15.7 7.025-15.7 15.7v31.4c0 8.67 7.036 15.703 15.7 15.703z"/></svg>