<svg xmlns="http://www.w3.org/2000/svg" width="64.999" height="65" viewBox="0 0 64.999 65"><path d="M24.37 64.75c-.322 0-.644-.078-.938-.234-.67-.354-1.083-1.06-1.063-1.817l.194-7.448H17.55c-3.823 0-6.552-3.15-6.552-7.02V22.09c0-3.773 2.73-6.843 6.55-6.843h40.138c3.822 0 7.313 3.068 7.313 6.842v26.136c0 3.87-3.49 7.02-7.314 7.02H38.262l-12.728 9.126c-.346.25-.755.376-1.165.376zm-6.82-45.5c-1.643 0-2.55 1.25-2.55 2.843V48.23c0 1.64.962 3.02 2.55 3.02h7.07c.54 0 1.056.217 1.432.604.377.388.58.91.566 1.45l-.144 5.477 9.98-7.153c.34-.244.746-.375 1.164-.375h20.067c1.59 0 3.313-1.383 3.313-3.02V22.09c0-1.594-1.67-2.843-3.313-2.843H17.55zM3.18 38.65c-.472 0-.754-.166-1.135-.504C.582 36.85 0 35.15 0 33.228V7.092C0 3.32 2.73.25 6.55.25H46.69C50.51.25 54 3.32 54 7.093V8.25c0 1.104-.895 2-2 2s-2-.896-2-2V7.092c0-1.594-1.668-2.843-3.312-2.843H6.55C4.908 4.25 4 5.5 4 7.09v26.136c0 .767.1 1.396.697 1.924.827.732.81 1.998.076 2.824-.396.445-1.04.674-1.593.674zM30.62 28.25h-8c-.554 0-1-.447-1-1s.446-1 1-1h8c.552 0 1 .447 1 1s-.448 1-1 1zM44.62 28.25h-10c-.554 0-1-.447-1-1s.446-1 1-1h10c.552 0 1 .447 1 1s-.448 1-1 1zM52.62 28.25h-4c-.554 0-1-.447-1-1s.446-1 1-1h4c.552 0 1 .447 1 1s-.448 1-1 1zM26.62 33.25h-4c-.554 0-1-.448-1-1s.446-1 1-1h4c.552 0 1 .447 1 1s-.448 1-1 1zM38.62 33.25h-8c-.554 0-1-.448-1-1s.446-1 1-1h8c.552 0 1 .447 1 1s-.448 1-1 1zM52.62 33.25h-10c-.554 0-1-.448-1-1s.446-1 1-1h10c.552 0 1 .447 1 1s-.448 1-1 1zM32.62 39.25h-10c-.554 0-1-.447-1-1s.446-1 1-1h10c.552 0 1 .447 1 1s-.448 1-1 1zM46.62 39.25h-10c-.554 0-1-.447-1-1s.446-1 1-1h10c.552 0 1 .447 1 1s-.448 1-1 1zM52.62 39.25h-2c-.554 0-1-.447-1-1s.446-1 1-1h2c.552 0 1 .447 1 1s-.448 1-1 1zM26.62 44.25h-4c-.554 0-1-.447-1-1s.446-1 1-1h4c.552 0 1 .447 1 1s-.448 1-1 1zM37.62 44.25h-7c-.554 0-1-.447-1-1s.446-1 1-1h7c.552 0 1 .447 1 1s-.448 1-1 1z"/></svg>