<svg xmlns="http://www.w3.org/2000/svg" width="112" height="112" viewBox="0 0 112 112"><path d="M112 24.41V59.59s-7.257 1.48-8.75 1.676c-1.493.195-6.17 1.758-9.57-1.62-5.23-5.207-23.834-24.392-23.834-24.392s-3.205-3.262-8.357-.438c-4.704 2.577-11.682 6.346-14.63 7.835-1.046.76-2.314 1.208-3.687 1.208-3.557 0-6.44-2.992-6.44-6.684 0-2.893 1.775-5.35 4.255-6.28 6.71-4.21 20.685-12.35 26.52-15.564 3.56-1.96 6.126-2.128 11.013 2.133 6.022 5.26 11.374 10.042 11.374 10.042s2.506 1.2 4.53.905c4.234-.625 17.576-4 17.576-4zM37.986 84.014c.9-2.398.598-5.088-1.13-6.926-1.552-1.656-3.81-2.092-5.973-1.578.603-2.218.27-4.58-1.292-6.25-1.558-1.65-3.81-2.085-5.972-1.57.597-2.218.266-4.58-1.293-6.25-2.445-2.605-6.674-2.49-9.45.26-2.763 2.752-4.536 7.73-2.067 10.65 2.465 2.92 5.287 1.147 7.448.636-.597 2.218-2.397 4.283-.187 7.188 2.206 2.912 5.286 1.148 7.446.632-.602 2.216-2.324 4.487-.19 7.187 2.146 2.697 5.665 1.26 7.983.514-.897 2.395-2.814 4.965-.35 7.868 2.458 2.9 8.147 1.55 10.93-1.2 2.775-2.748 3.038-7.102.602-9.706-1.68-1.793-4.19-2.21-6.506-1.457zM88.604 65.62c-19.98-20.724-10.57-10.966-21.36-22.18 0 0-3.253-3.36-7.532-1.41-3.005 1.368-6.874 3.23-9.79 4.65-3.207 1.734-6.002 2.267-6.586 2.267-6.183 0-11.2-5.2-11.2-11.61 0-4.158 2.13-7.78 5.3-9.833 4.462-3.2 14.738-8.876 14.738-8.876s-3.126-4.116-9.987-4.116c-6.854 0-21.172 9.74-21.172 9.74s-4.064 2.7-9.855.27L0 20.49v40.244s3.184.963 6.048 2.17c.653-1.908 1.685-3.683 3.142-5.137 4.75-4.696 12.62-4.747 16.944-.132 1.298 1.396 2.208 3.084 2.675 4.925 1.745.56 3.31 1.543 4.585 2.9 1.303 1.386 2.21 3.075 2.68 4.918 1.746.562 3.31 1.545 4.587 2.908 1.433 1.523 2.385 3.383 2.837 5.396 1.813.55 3.466 1.562 4.79 2.98 2.59 2.76 3.52 6.517 2.956 10.14v.007l.02.017c.097.113 1.617 1.887 2.58 2.885 1.92 1.993 5.04 1.988 6.96 0 1.91-1.986 1.92-5.227 0-7.22-.063-.063-.14-.11-.202-.17.002-.015.01-.03.012-.044-6.465-6.707-6.8-7.19-6.16-7.854.638-.663 1.585.798 8.818 8.308.033.033.078.062.133.084.145.21.29.424.47.61 1.914 1.992 5.04 1.988 6.958 0 1.914-1.987 1.918-5.228 0-7.22-.102-.105-.216-.186-.322-.28-.095-.114-.188-.23-.303-.346-6.6-6.84-7.35-8.144-6.846-8.666.574-.597 3.648 2.903 10.215 9.712.013 0 .026-.004.042-.004 1.924 1.818 4.914 1.773 6.775-.155 1.79-1.858 1.887-4.803.32-6.807-.027-.134-.078-.25-.164-.34-8.31-8.628-7.955-8.757-7.45-9.28s.54-.557 8.628 7.833c.03.034.052.075.085.11 1.914 1.992 5.04 1.987 6.96 0 1.91-1.987 1.917-5.23 0-7.222-.058-.05-.118-.088-.17-.14z"/></svg>