<svg xmlns="http://www.w3.org/2000/svg" viewBox="0 0 500 500" enable-background="new 0 0 500 500"><g fill="#090509"><path d="M36 387c-19 0-36 16-36 35s17 36 36 36 35-17 35-36-16-35-35-35zM36 215c-19 0-36 16-36 35s17 35 36 35 35-16 35-35-16-35-35-35zM164 110h303c18 0 33-14 33-32s-15-33-33-33H164c-18 0-33 15-33 33s15 32 33 32zM36 42C17 42 0 59 0 78s17 35 36 35 35-16 35-35-16-36-35-36zM467 217H164c-18 0-33 15-33 33s15 33 33 33h303c18 0 33-15 33-33s-15-33-33-33zM467 389H164c-18 0-33 15-33 33s15 33 33 33h303c18 0 33-15 33-33s-15-33-33-33z"/></g></svg>